<?xml version="1.0" encoding="UTF-8"?>
<svg version="1.1" xmlns="http://www.w3.org/2000/svg" width="1700" height="1646">
<path d="M0 0 C86.46 0 172.92 0 262 0 C262.33 232.98 262.66 465.96 263 706 C268.61 702.04 274.22 698.08 280 694 C351.88265562 646.07822959 434.64971991 619.50489289 520 609 C521.23395508 608.84692383 522.46791016 608.69384766 523.73925781 608.53613281 C551.85923951 605.1236998 579.89096389 603.68227916 608.20137982 603.76785454 C611.94966886 603.77681003 615.69795503 603.77365115 619.44625187 603.7722187 C626.66900271 603.7711703 633.89170241 603.78025673 641.11444024 603.79322136 C649.49756276 603.80780853 657.880656 603.80922094 666.26379395 603.81079102 C688.32170388 603.82122676 710.37960275 603.84914925 732.4375 603.875 C781.793125 603.91625 831.14875 603.9575 882 604 C882 404.68 882 205.36 882 0 C968.79 0 1055.58 0 1145 0 C1145 198.99 1145 397.98 1145 603 C1202.42499452 602.73079599 1202.42499452 602.73079599 1259.625 598.25 C1260.28981384 598.16763092 1260.95462769 598.08526184 1261.6395874 598.00039673 C1291.1549768 594.30286348 1319.93032445 587.49463226 1347 575 C1347.68610352 574.68450195 1348.37220703 574.36900391 1349.07910156 574.04394531 C1369.31595787 564.61441062 1387.23383429 552.43807116 1403.55859375 537.25390625 C1405.64051229 535.33187905 1407.76425897 533.50374045 1409.9375 531.6875 C1428.0200776 515.89292202 1442.01549204 494.98930831 1455 475 C1459.83907367 475.57666516 1463.85521217 477.07736317 1468.22265625 479.140625 C1468.91150909 479.45871124 1469.60036194 479.77679749 1470.31008911 480.10452271 C1471.79090473 480.78923781 1473.2702136 481.47721925 1474.74813843 482.16815186 C1477.90484913 483.64375604 1481.06891372 485.10327235 1484.2325592 486.56393433 C1485.84682172 487.30946796 1487.46070184 488.05583014 1489.07420349 488.80300903 C1496.08744628 492.04942541 1503.13003618 495.22573161 1510.1875 498.375 C1512.53522772 499.42431927 1514.88288165 500.47380366 1517.23046875 501.5234375 C1517.83462112 501.79345581 1518.4387735 502.06347412 1519.06123352 502.3416748 C1526.84470211 505.82197465 1534.61794112 509.3250289 1542.39224243 512.82574463 C1554.75714256 518.39357446 1567.12394451 523.95700149 1579.5 529.5 C1587.5551684 533.10775584 1595.6075539 536.72158192 1603.65625 540.34375 C1604.92165871 540.9130574 1604.92165871 540.9130574 1606.21263123 541.49386597 C1610.51948361 543.43190755 1614.82527358 545.3722533 1619.12915039 547.31689453 C1627.05324607 550.89448663 1634.98643779 554.44346896 1642.96484375 557.8984375 C1644.98712753 558.78051728 1647.00891795 559.66371681 1649.03051758 560.54736328 C1650.29118053 561.0944952 1651.5541855 561.63626538 1652.81958008 562.17236328 C1654.5402456 562.90136078 1656.25282214 563.64936529 1657.96484375 564.3984375 C1658.9199585 564.80755371 1659.87507324 565.21666992 1660.85913086 565.63818359 C1663 567 1663 567 1663.91894531 568.89941406 C1664.0186116 571.48233207 1663.45681021 572.88634221 1662.33203125 575.2109375 C1661.93959229 576.03223145 1661.54715332 576.85352539 1661.14282227 577.69970703 C1660.70381592 578.58255371 1660.26480957 579.46540039 1659.8125 580.375 C1659.13562134 581.76307861 1659.13562134 581.76307861 1658.44506836 583.17919922 C1653.29139091 593.6309099 1647.7122733 603.84526737 1642 614 C1641.54512207 614.81178711 1641.09024414 615.62357422 1640.62158203 616.45996094 C1624.19405432 645.66578843 1605.43648734 673.60911095 1583.546875 699.015625 C1581.13584863 701.84081541 1578.81397523 704.72022259 1576.5 707.625 C1572.48328433 712.57031123 1568.08616498 717.01404665 1563.5390625 721.4609375 C1561.48446927 723.51553073 1559.60219131 725.58037201 1557.75 727.8125 C1552.62435462 733.81295505 1546.62910789 739.00800231 1540.81884766 744.32958984 C1539.22850687 745.79014175 1537.64885398 747.26085255 1536.07421875 748.73828125 C1529.67959519 754.67817602 1522.97558318 760.1367372 1516.04736328 765.43261719 C1514.6203655 766.52507196 1513.19714165 767.6224665 1511.77685547 768.72363281 C1436.53689786 827.01539409 1345.40260755 855.05370163 1145 870 C1145 1089.78 1145 1309.56 1145 1536 C1058.21 1536 971.42 1536 882 1536 C882 1316.22 882 1096.44 882 870 C795.2821875 870.185625 795.2821875 870.185625 706.8125 870.375 C688.59522705 870.40899902 670.3779541 870.44299805 651.60864258 870.47802734 C635.20058114 870.51796074 635.20058114 870.51796074 618.79252625 870.56045532 C611.51546833 870.57923356 604.23842439 870.5927982 596.96134949 870.60269165 C588.54423545 870.61415353 580.12716811 870.63250813 571.71008728 870.65892879 C567.41566973 870.67220239 563.12130493 870.68268042 558.82686579 870.68425441 C533.55319978 870.69654858 508.39680638 871.38834965 483.3125 874.8125 C482.03761719 874.98281738 480.76273437 875.15313477 479.44921875 875.32861328 C445.31148243 880.0412158 410.34798574 887.44849674 379.81640625 904.02490234 C377.95507991 905.02411436 376.07564868 905.97834208 374.1875 906.92578125 C360.90748771 913.66241245 349.32264847 922.35737356 338 932 C337.19691406 932.67933594 336.39382813 933.35867188 335.56640625 934.05859375 C330.58024196 938.37208832 326.20435701 942.92923536 322 948 C321.31292969 948.79921875 320.62585938 949.5984375 319.91796875 950.421875 C274.3987652 1004.31151003 262.88189574 1079.98347318 262.84178162 1148.41969299 C262.83720161 1150.10491024 262.83219956 1151.79012638 262.82681805 1153.47534126 C262.81339106 1158.05456728 262.80586409 1162.63378599 262.79939139 1167.2130264 C262.79131857 1172.17051942 262.77764498 1177.12799754 262.76467896 1182.08547974 C262.74301289 1190.65756827 262.7248328 1199.22965837 262.70907402 1207.80175972 C262.68628483 1220.19531939 262.65815498 1232.5888625 262.62875474 1244.98240804 C262.58118919 1265.09397757 262.5378954 1285.20555392 262.49731445 1305.31713867 C262.45790316 1324.8444878 262.4164526 1344.37183088 262.37231445 1363.89916992 C262.36819019 1365.72546908 262.36819019 1365.72546908 262.36398262 1367.58866316 C262.34246131 1377.11169057 262.32082237 1386.63471771 262.29914629 1396.15774477 C262.19307457 1442.77181758 262.09725496 1489.38590634 262 1536 C175.54 1536 89.08 1536 0 1536 C0 1029.12 0 522.24 0 0 Z " fill="#000000" transform="translate(18,56)"/>
</svg>
